<svg width="87" height="63" viewBox="0 0 87 63" fill="none" xmlns="http://www.w3.org/2000/svg">
<path fill-rule="evenodd" clip-rule="evenodd" d="M63.7185 25.4828H75.1834L75.0984 36.4446C74.6738 36.8567 75.8628 36.8567 74.2492 36.7743H63.6336C63.209 35.2907 63.4637 30.5104 63.4637 28.2851C63.4637 27.1312 63.209 26.307 63.7185 25.4828ZM75.0984 22.5157L74.9286 22.5981L69.4085 22.763C67.6251 22.763 65.417 22.8454 63.6336 22.6806C63.209 21.3619 63.209 12.6254 63.7185 11.4715C65.0773 11.2243 73.4849 10.977 74.1643 11.7188C75.0984 12.0485 75.0984 12.0485 75.1834 13.4496C75.1834 14.4386 75.1834 15.5101 75.1834 16.4991C75.1834 18.4772 75.1834 20.5377 75.0984 22.5157ZM63.7185 39.4941H75.1834V48.3954C75.0984 50.7856 74.504 50.291 74.1643 50.4559C73.8246 51.1977 64.8225 50.868 63.6336 50.7031C63.209 49.3844 63.4637 44.4393 63.4637 42.2964C63.4637 41.8843 63.3788 41.3898 63.4637 40.9777L63.7185 39.4941ZM60.7462 50.7031C54.9713 50.7031 49.1964 50.7031 43.4215 50.7031C36.5426 50.7031 37.7316 52.5988 37.6466 39.4941C41.3833 39.4941 45.12 39.4117 48.7718 39.4941C50.6401 39.4941 51.9989 39.5765 52.0838 37.6809C52.4235 31.6643 51.9989 18.5596 52.0838 11.4715H60.7462V50.7031ZM37.6466 22.6806C37.6466 20.4552 37.1371 13.532 37.9863 11.8836C39.515 10.977 46.9034 11.3891 49.1964 11.4715V22.6806H37.6466ZM37.6466 36.6919V25.4828H49.1964V36.6919H37.6466ZM34.8441 49.9614C35.6084 53.5878 38.326 53.5054 42.2326 53.5054C47.7527 53.5054 73.7396 53.8351 75.5231 53.0933C78.6653 51.7746 78.0708 48.3954 78.0708 44.7689C78.0708 40.5656 78.3256 13.6144 77.9009 11.8836C77.1366 8.50444 73.9095 8.66928 70.2577 8.66928C64.6527 8.66928 39.0054 8.17477 37.1371 9.08138C34.1647 10.4001 34.7592 13.7793 34.7592 17.3233C34.7592 21.2794 34.5044 48.4778 34.8441 49.9614Z" fill="#000070" fill-opacity="0.5"/>
<path fill-rule="evenodd" clip-rule="evenodd" d="M3.08329 55.7323C2.74359 54.1663 2.99836 26.391 2.99836 22.27C2.99836 17.6545 2.40389 16.7479 4.18731 15.0171L12.8496 6.61035C14.718 4.79712 15.9069 3.14874 17.6054 3.06632C23.2104 2.81906 29.5798 3.06632 35.1848 3.06632H69.7492C76.2035 3.06632 82.5728 1.83003 83.6768 6.28067C84.1014 8.01148 83.9316 55.2377 83.5919 56.3092C82.6577 58.6994 80.8743 59.1115 77.6472 59.1115H8.26369C5.29133 59.1115 3.76268 58.2048 3.08329 55.7323ZM0.280771 56.3092C1.80942 63.0676 8.60339 61.9137 13.3592 61.9137H69.7492C76.4582 61.9137 82.318 63.0676 85.3753 58.9466C87.6683 55.9795 86.7341 46.5837 86.7341 42.0507C86.7341 37.0231 87.0738 8.0939 86.5643 5.70374C85.9698 3.39599 84.1864 1.58277 82.2331 0.758576C80.0251 -0.0656173 75.9487 0.26406 73.4009 0.26406L17.0959 0.181641C14.633 0.26406 14.2933 1.33551 11.5758 3.97293C9.96219 5.62132 8.51847 6.94002 6.9049 8.58841C-0.82325 16.171 0.110922 13.616 0.110922 20.0447C0.110922 25.1547 -0.228777 53.8366 0.280771 56.3092Z" fill="#000070" fill-opacity="0.5"/>
</svg>
