<svg width="38" height="39" viewBox="0 0 38 39" fill="none" xmlns="http://www.w3.org/2000/svg">
<path fill-rule="evenodd" clip-rule="evenodd" d="M17.9364 17.7146C19.3359 18.0869 22.37 18.8941 22.8994 16.771C23.4418 14.5909 20.4694 13.9381 19.0238 13.6207C18.8645 13.5857 18.7238 13.5548 18.6083 13.5264L17.5911 17.6245C17.6898 17.649 17.806 17.6799 17.9364 17.7146ZM16.3527 24.3121C18.0293 24.7548 21.6835 25.7196 22.2623 23.383C22.8606 21.0002 19.3219 20.2006 17.5853 19.8082C17.3875 19.7635 17.2131 19.7241 17.0709 19.6882L15.9484 24.2073C16.0643 24.236 16.2004 24.2719 16.3527 24.3121ZM27.3761 16.4728C27.1029 18.3254 26.0815 19.222 24.7157 19.5367C26.5863 20.5105 27.5364 22.0069 26.6338 24.5898C25.5055 27.8081 22.8332 28.0812 19.2761 27.4043L18.4151 30.8661L16.3307 30.3436L17.1799 26.9352C16.6395 26.7987 16.0872 26.6556 15.5231 26.5018L14.6679 29.9279L12.5835 29.4113L13.4446 25.9436C12.9577 25.8189 12.4648 25.6883 11.96 25.5636L9.24617 24.8867L10.2795 22.4991C10.2795 22.4991 11.8175 22.9094 11.7997 22.8797C12.3876 23.0222 12.6489 22.6363 12.7558 22.3809L14.1157 16.9181C14.1929 16.9359 14.2641 16.9538 14.3354 16.9716C14.2522 16.9359 14.181 16.9181 14.1216 16.9003L15.0955 12.9992C15.1192 12.5538 14.9648 11.9957 14.1216 11.7879C14.1216 11.7582 12.6073 11.4078 12.6073 11.4078L13.1596 9.18115L16.0397 9.89962L16.0338 9.9115C16.4673 10.0184 16.9126 10.1193 17.364 10.2262L18.2191 6.80008L20.3035 7.32261L19.4662 10.6775C20.0244 10.8081 20.5885 10.9328 21.1348 11.0694L21.9662 7.73826L24.0506 8.25485L23.2014 11.681C25.8321 12.5895 27.7561 13.9492 27.3761 16.4728ZM23.5934 0.749478C13.415 -1.78597 3.1059 4.40718 0.570203 14.5846C-1.97143 24.768 4.22232 35.0761 14.4007 37.6115C24.5851 40.1529 34.8941 33.9597 37.4298 23.7764C39.9715 13.5989 33.7777 3.28493 23.5934 0.749478Z" fill="#347AF0"/>
</svg>
