<svg width="88" height="88" viewBox="0 0 88 88" fill="none" xmlns="http://www.w3.org/2000/svg">
<path d="M36.6666 58.6667V55H11.0366L10.9999 69.6667C10.9999 73.7367 14.2633 77 18.3333 77H69.6666C73.7366 77 76.9999 73.7367 76.9999 69.6667V55H51.3333V58.6667H36.6666ZM73.3333 25.6667H58.6299V18.3333L51.2966 11H36.6299L29.2966 18.3333V25.6667H14.6666C10.6333 25.6667 7.33325 28.9667 7.33325 33V44C7.33325 48.07 10.5966 51.3333 14.6666 51.3333H36.6666V44H51.3333V51.3333H73.3333C77.3666 51.3333 80.6666 48.0333 80.6666 44V33C80.6666 28.9667 77.3666 25.6667 73.3333 25.6667ZM51.3333 25.6667H36.6666V18.3333H51.3333V25.6667Z" fill="#000070" fill-opacity="0.5"/>
</svg>
