<svg width="32" height="31" viewBox="0 0 32 31" fill="none" xmlns="http://www.w3.org/2000/svg">
<path d="M4.49984 0C2.3915 0 0.666504 1.725 0.666504 3.83333C0.666504 5.94167 2.3915 7.66667 4.49984 7.66667C6.60817 7.66667 8.33317 5.94167 8.33317 3.83333C8.33317 1.725 6.60817 0 4.49984 0ZM4.49984 11.5C2.3915 11.5 0.666504 13.225 0.666504 15.3333C0.666504 17.4417 2.3915 19.1667 4.49984 19.1667C6.60817 19.1667 8.33317 17.4417 8.33317 15.3333C8.33317 13.225 6.60817 11.5 4.49984 11.5ZM4.49984 23C2.3915 23 0.666504 24.725 0.666504 26.8333C0.666504 28.9417 2.3915 30.6667 4.49984 30.6667C6.60817 30.6667 8.33317 28.9417 8.33317 26.8333C8.33317 24.725 6.60817 23 4.49984 23ZM27.4998 7.66667C29.6082 7.66667 31.3332 5.94167 31.3332 3.83333C31.3332 1.725 29.6082 0 27.4998 0C25.3915 0 23.6665 1.725 23.6665 3.83333C23.6665 5.94167 25.3915 7.66667 27.4998 7.66667ZM15.9998 23C13.8915 23 12.1665 24.725 12.1665 26.8333C12.1665 28.9417 13.8915 30.6667 15.9998 30.6667C18.1082 30.6667 19.8332 28.9417 19.8332 26.8333C19.8332 24.725 18.1082 23 15.9998 23ZM27.4998 23C25.3915 23 23.6665 24.725 23.6665 26.8333C23.6665 28.9417 25.3915 30.6667 27.4998 30.6667C29.6082 30.6667 31.3332 28.9417 31.3332 26.8333C31.3332 24.725 29.6082 23 27.4998 23ZM27.4998 11.5C25.3915 11.5 23.6665 13.225 23.6665 15.3333C23.6665 17.4417 25.3915 19.1667 27.4998 19.1667C29.6082 19.1667 31.3332 17.4417 31.3332 15.3333C31.3332 13.225 29.6082 11.5 27.4998 11.5ZM15.9998 11.5C13.8915 11.5 12.1665 13.225 12.1665 15.3333C12.1665 17.4417 13.8915 19.1667 15.9998 19.1667C18.1082 19.1667 19.8332 17.4417 19.8332 15.3333C19.8332 13.225 18.1082 11.5 15.9998 11.5ZM15.9998 0C13.8915 0 12.1665 1.725 12.1665 3.83333C12.1665 5.94167 13.8915 7.66667 15.9998 7.66667C18.1082 7.66667 19.8332 5.94167 19.8332 3.83333C19.8332 1.725 18.1082 0 15.9998 0Z" fill="#000070" fill-opacity="0.75"/>
</svg>
