<svg width="88" height="88" viewBox="0 0 88 88" fill="none" xmlns="http://www.w3.org/2000/svg">
<path d="M73.3333 21.9999H65.3399C65.7433 20.8633 65.9999 19.6166 65.9999 18.3333C65.9999 12.2466 61.0866 7.33325 54.9999 7.33325C51.1499 7.33325 47.8133 9.31325 45.8333 12.2833L43.9999 14.7399L42.1666 12.2466C40.1866 9.31325 36.8499 7.33325 32.9999 7.33325C26.9133 7.33325 21.9999 12.2466 21.9999 18.3333C21.9999 19.6166 22.2566 20.8633 22.6599 21.9999H14.6666C10.5966 21.9999 7.36992 25.2633 7.36992 29.3333L7.33325 69.6666C7.33325 73.7366 10.5966 76.9999 14.6666 76.9999H73.3333C77.4033 76.9999 80.6666 73.7366 80.6666 69.6666V29.3333C80.6666 25.2633 77.4033 21.9999 73.3333 21.9999ZM54.9999 14.6666C57.0166 14.6666 58.6666 16.3166 58.6666 18.3333C58.6666 20.3499 57.0166 21.9999 54.9999 21.9999C52.9833 21.9999 51.3333 20.3499 51.3333 18.3333C51.3333 16.3166 52.9833 14.6666 54.9999 14.6666ZM32.9999 14.6666C35.0166 14.6666 36.6666 16.3166 36.6666 18.3333C36.6666 20.3499 35.0166 21.9999 32.9999 21.9999C30.9833 21.9999 29.3333 20.3499 29.3333 18.3333C29.3333 16.3166 30.9833 14.6666 32.9999 14.6666ZM73.3333 69.6666H14.6666V62.3332H73.3333V69.6666ZM73.3333 51.3333H14.6666V29.3333H33.2933L25.6666 39.7099L31.6066 43.9999L40.3333 32.1199L43.9999 27.1333L47.6666 32.1199L56.3933 43.9999L62.3333 39.7099L54.7066 29.3333H73.3333V51.3333Z" fill="#000070" fill-opacity="0.5"/>
</svg>
