<svg width="46" height="46" viewBox="0 0 46 46" fill="none" xmlns="http://www.w3.org/2000/svg">
<path d="M11.5 1.91675C9.39163 1.91675 7.66663 3.64175 7.66663 5.75008C7.66663 7.85841 9.39163 9.58341 11.5 9.58341C13.6083 9.58341 15.3333 7.85841 15.3333 5.75008C15.3333 3.64175 13.6083 1.91675 11.5 1.91675ZM11.5 13.4167C9.39163 13.4167 7.66663 15.1417 7.66663 17.2501C7.66663 19.3584 9.39163 21.0834 11.5 21.0834C13.6083 21.0834 15.3333 19.3584 15.3333 17.2501C15.3333 15.1417 13.6083 13.4167 11.5 13.4167ZM11.5 24.9167C9.39163 24.9167 7.66663 26.6417 7.66663 28.7501C7.66663 30.8584 9.39163 32.5834 11.5 32.5834C13.6083 32.5834 15.3333 30.8584 15.3333 28.7501C15.3333 26.6417 13.6083 24.9167 11.5 24.9167ZM34.5 9.58341C36.6083 9.58341 38.3333 7.85841 38.3333 5.75008C38.3333 3.64175 36.6083 1.91675 34.5 1.91675C32.3916 1.91675 30.6666 3.64175 30.6666 5.75008C30.6666 7.85841 32.3916 9.58341 34.5 9.58341ZM23 24.9167C20.8916 24.9167 19.1666 26.6417 19.1666 28.7501C19.1666 30.8584 20.8916 32.5834 23 32.5834C25.1083 32.5834 26.8333 30.8584 26.8333 28.7501C26.8333 26.6417 25.1083 24.9167 23 24.9167ZM34.5 24.9167C32.3916 24.9167 30.6666 26.6417 30.6666 28.7501C30.6666 30.8584 32.3916 32.5834 34.5 32.5834C36.6083 32.5834 38.3333 30.8584 38.3333 28.7501C38.3333 26.6417 36.6083 24.9167 34.5 24.9167ZM34.5 13.4167C32.3916 13.4167 30.6666 15.1417 30.6666 17.2501C30.6666 19.3584 32.3916 21.0834 34.5 21.0834C36.6083 21.0834 38.3333 19.3584 38.3333 17.2501C38.3333 15.1417 36.6083 13.4167 34.5 13.4167ZM23 13.4167C20.8916 13.4167 19.1666 15.1417 19.1666 17.2501C19.1666 19.3584 20.8916 21.0834 23 21.0834C25.1083 21.0834 26.8333 19.3584 26.8333 17.2501C26.8333 15.1417 25.1083 13.4167 23 13.4167ZM23 1.91675C20.8916 1.91675 19.1666 3.64175 19.1666 5.75008C19.1666 7.85841 20.8916 9.58341 23 9.58341C25.1083 9.58341 26.8333 7.85841 26.8333 5.75008C26.8333 3.64175 25.1083 1.91675 23 1.91675Z" fill="white"/>
</svg>
