<svg width="38" height="39" viewBox="0 0 38 39" fill="none" xmlns="http://www.w3.org/2000/svg">
<circle cx="19" cy="19.1816" r="19" fill="#FFB800"/>
<path fill-rule="evenodd" clip-rule="evenodd" d="M11.7405 19.4941L19.4641 24.0595L19.4641 24.0595L19.4642 24.0595V24.0596L19.4642 24.0595L27.1877 19.4941L27.1878 19.494L19.4642 6.6786V6.6785L19.4642 6.67855L19.4641 6.67847L19.464 6.67878L11.7405 19.4941ZM19.4642 31.8428L19.4641 31.8427L19.4641 31.8426L11.7405 20.9588L19.4641 25.5219L27.1924 20.9588L19.4642 31.8426V31.8428Z" fill="white"/>
<mask id="mask0" mask-type="alpha" maskUnits="userSpaceOnUse" x="11" y="6" width="17" height="26">
<path fill-rule="evenodd" clip-rule="evenodd" d="M11.8904 19.4941L19.614 24.0595L19.614 24.0595L19.6141 24.0595V24.0596L19.6141 24.0595L27.3377 19.4941L27.3377 19.494L19.6141 6.6786V6.6785L19.6141 6.67855L19.614 6.67847L19.6139 6.67879L11.8904 19.4941ZM19.6141 31.8428L19.614 31.8427L19.614 31.8426L11.8904 20.9588L19.614 25.5219L27.3423 20.9588L19.6141 31.8426V31.8428Z" fill="white"/>
</mask>
<g mask="url(#mask0)">
</g>
</svg>
