<svg width="87" height="63" viewBox="0 0 87 63" fill="none" xmlns="http://www.w3.org/2000/svg">
<path fill-rule="evenodd" clip-rule="evenodd" d="M18.2574 23.31C18.2574 24.5657 16.736 27.6758 16.102 28.8C15.5104 29.8221 14.3129 31.6035 12.9887 30.8734C12.0026 30.3332 10.3121 28.7562 11.0446 27.5005C12.1012 25.69 14.975 24.5803 16.7923 23.821C17.2009 23.6604 17.8066 23.3538 18.2574 23.31ZM86.92 5.77391V56.557C86.92 57.1118 85.5958 59.4626 84.99 60.0759C84.8491 60.2219 84.7505 60.2803 84.6096 60.3971L83.4545 61.244C83.1868 61.4046 82.0034 62.0616 81.6935 62.0616H5.311C4.80384 62.0616 3.83181 61.5068 3.42327 61.2732C2.49349 60.7329 1.95817 60.2365 1.32423 59.4042C1.127 59.1414 0.972039 58.8786 0.802989 58.5719C0.633938 58.2799 0 57.068 0 56.7468V5.5987C0 5.18986 0.648026 3.96336 0.845251 3.62753C1.8032 1.99219 3.76137 0.254647 5.66318 0.269248C9.29776 0.269248 12.6506 0.181641 16.2993 0.181641H81.609C81.9189 0.181641 83.1586 0.867898 83.4967 1.05771C84.1307 1.42274 84.4969 1.75857 84.99 2.26962C85.6803 2.97047 86.92 5.13146 86.92 5.77391ZM22.2442 23.31C22.7232 23.3538 24.0051 23.894 24.4982 24.0984C25.8224 24.6533 29.7669 26.4054 29.7669 28.1868C29.7669 28.9753 27.6679 31.8809 26.245 30.8296C24.3573 29.3987 23.343 26.5223 22.5259 24.2153C22.4132 23.9524 22.3428 23.5436 22.2442 23.31ZM28.7104 22.7697H84.1729V46.6427C84.1729 48.0737 84.0884 49.2126 84.0884 50.5851C84.0884 51.9138 84.0743 53.2279 84.0884 54.542C84.0884 55.8853 84.0321 56.6884 83.1727 57.6375C81.2005 59.8277 80.6933 58.8932 78.876 59.156C77.904 59.2874 70.663 59.229 69.2824 59.229L21.7089 59.3166V29.9243L22.6105 31.1946C23.4416 32.4504 24.8926 33.8813 26.4986 33.8813C27.9215 33.8813 28.7667 33.8521 30.0064 32.7424C30.7812 32.0561 30.5981 32.3043 31.2602 31.4721C31.7955 30.7858 32.3872 29.8513 32.514 28.9023C32.8239 26.347 31.2602 24.6533 29.4007 23.3392C29.1753 23.1786 28.8512 22.9596 28.7104 22.7697ZM8.05806 27.997C8.05806 29.8367 8.8047 30.9172 9.819 31.9685C11.27 33.4724 11.904 33.8813 14.003 33.8813C14.7637 33.8813 15.1863 33.6769 15.6794 33.414C15.933 33.2972 16.1302 33.195 16.3556 33.0198C16.4965 32.903 16.5247 32.8592 16.6514 32.757C17.3558 32.1875 16.9755 32.465 17.4826 31.8809C18.0884 31.18 18.4969 30.377 18.8773 29.9243V59.3166C17.2854 59.3166 6.38165 59.302 5.55048 59.083C4.56436 58.8056 2.95838 57.1118 2.84568 56.1773C2.69072 54.9654 2.74707 51.9138 2.74707 50.5851C2.74707 49.3294 2.66254 48.2635 2.66254 46.9202V22.7697H11.9603L11.3405 23.2224C9.80491 24.2737 8.05806 25.8944 8.05806 27.997ZM22.2442 19.1778L23.0613 16.9146C23.3994 16.1262 23.6248 15.4983 23.977 14.7391C24.3291 14.0382 24.6672 13.3811 25.1462 12.8263C26.2873 11.483 26.9494 10.8989 28.2877 12.1838L29.0344 12.9577C30.3163 14.3156 29.8374 15.0895 28.4568 16.2576C27.1748 17.3381 23.343 19.1632 22.2442 19.1778ZM13.5522 11.4684C15.8062 11.4684 18.2715 18.3456 18.342 19.28C18.1447 19.1778 17.7503 19.0902 17.539 19.0172L15.13 18.0097C13.7917 17.4257 12.0167 16.4474 11.1573 15.2355C10.3684 14.0966 11.3264 13.1767 12.1153 12.3591C12.3829 12.0816 13.0873 11.4684 13.5522 11.4684ZM21.7089 12.6657V3.01428H74.5089C74.9597 3.01428 75.4105 3.01428 75.8472 3.01428C76.3544 3.02888 76.5093 3.11649 77.0869 3.11649C78.6224 3.10189 81.0173 2.89747 82.0457 3.56913C83.2291 4.35759 83.9616 5.45268 84.0743 6.97121L84.1729 19.8203H28.6258C30.0628 18.5208 33.0916 17.0607 32.4858 13.5272C32.0632 11.118 28.5554 7.33624 25.104 9.01538C23.991 9.55563 23.3994 10.2419 22.6668 11.2786C22.4273 11.5998 21.9624 12.4759 21.7089 12.6657ZM9.43864 3.01428L18.99 2.94127L18.9759 12.8847C18.8068 12.7679 18.9195 13.0307 18.7928 12.6657C18.5251 11.702 16.6937 9.42422 15.1723 8.88397C14.2425 8.56275 13.0028 8.54814 12.0589 8.91317C11.2841 9.2052 10.9178 9.57023 10.3825 10.0083C10.143 10.2127 10.0726 10.2565 9.86126 10.4755C9.55134 10.7967 9.29776 11.1326 9.04419 11.483C8.77652 11.8626 8.5793 12.2131 8.38207 12.7095C7.46639 15.0749 8.48069 16.6226 9.90353 18.1119C10.5516 18.7836 11.7772 19.5575 11.9603 19.8203H2.66254V11.0158C2.66254 9.92066 2.74707 9.1614 2.74707 8.0663C2.74707 7.08802 2.71889 6.13894 3.07108 5.46728C3.25422 5.11686 3.43735 4.92704 3.67684 4.62041C4.38122 3.68594 5.24056 3.11649 6.5507 3.11649C7.62135 3.10189 8.48069 3.01428 9.43864 3.01428Z" fill="#000070" fill-opacity="0.5"/>
<path fill-rule="evenodd" clip-rule="evenodd" d="M71.9448 47.0961C71.7617 46.2638 71.8603 44.8913 71.8603 43.9714C71.8603 43.475 71.9448 43.4312 71.9448 42.9639C72.5788 43.2852 74.072 43.7378 74.072 45.0811C74.072 45.7674 73.748 46.1324 73.3818 46.4828C73.0014 46.8625 72.6774 47.0961 71.9448 47.0961ZM67.0705 36.8168C67.0705 36.2766 67.2819 35.7655 67.5918 35.5173C67.8876 35.2545 68.3666 34.9332 68.8456 34.8894C69.1837 35.5611 69.0146 37.6053 69.0146 38.4667C69.0146 39.1676 67.0705 38.2039 67.0705 36.8168ZM69.0146 31.0347V31.9546C67.1692 31.9546 65.1828 33.2541 64.3235 34.612C63.7036 35.6049 63.7882 36.2912 63.7882 37.5469C63.7882 39.8247 65.4223 40.8759 67.0987 41.5622C67.7749 41.8542 68.268 41.9564 69.0146 42.1463C69.0146 43.4896 69.1837 46.0156 68.9301 47.0961C67.3946 46.731 65.4082 45.2709 64.9433 45.2709H64.408C63.9572 45.2709 61.0834 46.9063 65.4787 48.9358C67.0001 49.6367 68.7751 50.0163 69.0146 50.1331C69.0146 50.8194 69.0005 51.4472 69.1696 52.0021C69.55 53.3162 71.3672 53.36 71.7194 52.0021C71.8321 51.5641 71.9026 50.6004 71.9448 50.1331C73.6212 49.7243 74.2552 49.7535 75.7625 48.5708C77.7771 46.9793 78.3265 43.0807 75.5371 41.168C74.0016 40.1021 72.8746 40.0291 71.9448 39.5764C71.9448 38.8172 71.8603 38.4229 71.8603 37.6491C71.8603 34.1156 71.6913 34.9332 74.2552 35.9845C75.6639 36.5394 76.7346 35.9845 76.7346 34.612C76.7346 33.2979 73.255 32.0714 71.8603 31.9546C71.8603 31.2683 71.9026 30.4069 71.7335 29.8812C71.3954 28.8591 69.0146 28.2021 69.0146 31.0347Z" fill="#000070" fill-opacity="0.5"/>
<path fill-rule="evenodd" clip-rule="evenodd" d="M18.7926 12.6653C18.9194 13.0304 18.8067 12.7675 18.9757 12.8844L18.9898 2.94092L9.43848 3.01392H18.8771V11.468C18.8771 11.8769 18.9335 12.4171 18.7926 12.6653Z" fill="#A7A7A7"/>
</svg>
