<svg width="88" height="88" viewBox="0 0 88 88" fill="none" xmlns="http://www.w3.org/2000/svg">
<path d="M72.4901 26.51L72.5268 26.4733L58.8868 12.8333L55.0001 16.72L62.7368 24.4567C59.2901 25.7767 56.8334 29.0767 56.8334 33C56.8334 38.06 60.9401 42.1667 66.0001 42.1667C67.3201 42.1667 68.5301 41.8733 69.6668 41.3967V67.8333C69.6668 69.85 68.0168 71.5 66.0001 71.5C63.9834 71.5 62.3334 69.85 62.3334 67.8333V51.3333C62.3334 47.3 59.0334 44 55.0001 44H51.3334V18.3333C51.3334 14.3 48.0334 11 44.0001 11H22.0001C17.9667 11 14.6667 14.3 14.6667 18.3333V77H51.3334V49.5H56.8334V67.8333C56.8334 72.8933 60.9401 77 66.0001 77C71.0601 77 75.1668 72.8933 75.1668 67.8333V33C75.1668 30.47 74.1401 28.16 72.4901 26.51ZM44.0001 36.6667H22.0001V18.3333H44.0001V36.6667ZM66.0001 36.6667C63.9834 36.6667 62.3334 35.0167 62.3334 33C62.3334 30.9833 63.9834 29.3333 66.0001 29.3333C68.0168 29.3333 69.6668 30.9833 69.6668 33C69.6668 35.0167 68.0168 36.6667 66.0001 36.6667Z" fill="#000070" fill-opacity="0.5"/>
</svg>
