<svg width="88" height="88" viewBox="0 0 88 88" fill="none" xmlns="http://www.w3.org/2000/svg">
<path d="M25.6665 65.9999C21.6332 65.9999 18.3698 69.2999 18.3698 73.3333C18.3698 77.3666 21.6332 80.6666 25.6665 80.6666C29.6998 80.6666 32.9998 77.3666 32.9998 73.3333C32.9998 69.2999 29.6998 65.9999 25.6665 65.9999ZM3.6665 7.33325V14.6666H10.9998L24.1998 42.4966L19.2498 51.4799C18.6632 52.5066 18.3332 53.7166 18.3332 54.9999C18.3332 59.0333 21.6332 62.3333 25.6665 62.3333H69.6665V54.9999H27.2065C26.6932 54.9999 26.2898 54.5966 26.2898 54.0833L26.3998 53.6433L29.6998 47.6666H57.0165C59.7665 47.6666 62.1865 46.1633 63.4332 43.8899L76.5598 20.0933C76.8532 19.5799 76.9998 18.9566 76.9998 18.3333C76.9998 16.3166 75.3498 14.6666 73.3332 14.6666H19.1032L15.6565 7.33325H3.6665ZM62.3332 65.9999C58.2998 65.9999 55.0365 69.2999 55.0365 73.3333C55.0365 77.3666 58.2998 80.6666 62.3332 80.6666C66.3665 80.6666 69.6665 77.3666 69.6665 73.3333C69.6665 69.2999 66.3665 65.9999 62.3332 65.9999Z" fill="#000070" fill-opacity="0.5"/>
</svg>
