<svg width="42" height="42" viewBox="0 0 42 42" fill="none" xmlns="http://www.w3.org/2000/svg">
<path d="M40.25 14C40.25 15.925 38.675 17.5 36.75 17.5C36.435 17.5 36.1375 17.465 35.8575 17.3775L29.6275 23.59C29.715 23.87 29.75 24.185 29.75 24.5C29.75 26.425 28.175 28 26.25 28C24.325 28 22.75 26.425 22.75 24.5C22.75 24.185 22.785 23.87 22.8725 23.59L18.41 19.1275C18.13 19.215 17.815 19.25 17.5 19.25C17.185 19.25 16.87 19.215 16.59 19.1275L8.6275 27.1075C8.715 27.3875 8.75 27.685 8.75 28C8.75 29.925 7.175 31.5 5.25 31.5C3.325 31.5 1.75 29.925 1.75 28C1.75 26.075 3.325 24.5 5.25 24.5C5.565 24.5 5.8625 24.535 6.1425 24.6225L14.1225 16.66C14.035 16.38 14 16.065 14 15.75C14 13.825 15.575 12.25 17.5 12.25C19.425 12.25 21 13.825 21 15.75C21 16.065 20.965 16.38 20.8775 16.66L25.34 21.1225C25.62 21.035 25.935 21 26.25 21C26.565 21 26.88 21.035 27.16 21.1225L33.3725 14.8925C33.285 14.6125 33.25 14.315 33.25 14C33.25 12.075 34.825 10.5 36.75 10.5C38.675 10.5 40.25 12.075 40.25 14Z" fill="white"/>
</svg>
