<svg width="30" height="27" viewBox="0 0 30 27" fill="none" xmlns="http://www.w3.org/2000/svg">
<path d="M17.1429 0C10.0429 0 4.28571 6.045 4.28571 13.5H0L5.55714 19.335L5.65714 19.545L11.4286 13.5H7.14286C7.14286 7.695 11.6143 3 17.1429 3C22.6714 3 27.1429 7.695 27.1429 13.5C27.1429 19.305 22.6714 24 17.1429 24C14.3857 24 11.8857 22.815 10.0857 20.91L8.05714 23.04C10.3857 25.485 13.5857 27 17.1429 27C24.2429 27 30 20.955 30 13.5C30 6.045 24.2429 0 17.1429 0ZM15.7143 7.5V15L21.8286 18.81L22.8571 16.995L17.8571 13.875V7.5H15.7143Z" fill="white"/>
</svg>
