<svg width="69" height="72" viewBox="0 0 69 72" fill="none" xmlns="http://www.w3.org/2000/svg">
<path fill-rule="evenodd" clip-rule="evenodd" d="M59.2988 67.1148H36.6833V31.7951H60.823V65.2717C60.823 66.3735 60.4316 67.1148 59.2988 67.1148ZM8.17701 65.0713V31.7951H32.5021V67.1148H9.6806C8.52716 67.1148 8.17701 66.1732 8.17701 65.0713ZM62.9239 27.7282H36.6833V16.2688C38.8666 16.2688 40.3701 16.0885 42.574 16.0885H63.2946C64.2215 16.0885 64.8188 16.6695 64.8188 17.571V26.2457C64.8188 27.3476 64.0567 27.7282 62.9239 27.7282ZM4.18119 26.0654V17.9316C4.18119 16.8298 4.57254 16.0885 5.70537 16.0885H26.22C28.5681 16.0885 30.1746 16.2688 32.5021 16.2688V27.7282H5.89075C4.8609 27.7282 4.18119 27.0671 4.18119 26.0654ZM41.9973 12.0217H36.6833C36.6833 8.6159 39.8552 4.24851 42.2033 4.24851C44.0158 4.24851 45.2722 4.22848 46.817 5.10997C49.7418 6.73271 49.9272 12.0217 41.9973 12.0217ZM20.3293 8.13508C20.3293 4.96973 23.8513 4.24851 26.6113 4.24851C29.7009 4.24851 32.2549 9.09671 32.5021 12.0217C29.083 12.0217 22.5331 12.7028 20.8236 9.67769C20.6794 9.41725 20.3293 8.41556 20.3293 8.13508ZM17.6722 12.0217C13.7794 12.0217 9.76299 11.9215 5.87015 12.0016C2.90418 12.0617 0 15.0067 0 17.9316V26.0654C0 28.1489 2.28627 30.8535 3.99582 31.2542C3.99582 38.827 3.99582 46.3998 3.99582 53.9926C3.99582 57.4584 3.72806 61.906 3.99582 65.2516C4.24298 68.437 7.27075 71.1816 9.6806 71.1816H59.2988C61.9764 71.1816 64.8806 68.2968 65.0042 65.452C65.1896 61.8058 65.0042 57.6989 65.0042 53.9926C65.0042 46.3998 65.0042 38.827 65.0042 31.2542C65.8487 31.174 67.2081 30.0321 67.6818 29.391C68.2173 28.6498 69 27.5078 69 26.2457V17.3707C69 15.1469 66.24 12.0818 63.1093 12.0016C59.2988 11.9215 55.3442 12.0217 51.5131 12.0217C51.7603 11.0801 52.8313 10.3188 52.8313 7.95478C52.8313 3.80777 47.6615 0.181641 43.3361 0.181641C39.6698 0.181641 38.0839 1.42374 35.88 4.02814C35.3857 4.58909 34.9119 5.55072 34.397 5.91132C33.9439 4.24851 30.1128 0.181641 26.7967 0.181641C23.2128 0.181641 20.1027 1.30354 17.8988 3.92797C15.6331 6.61251 15.7155 9.15681 17.6722 12.0217Z" fill="#000070" fill-opacity="0.5"/>
</svg>
